ply
format ascii 1.0
element vertex 73
comment vertices
property float x
property float y
property float z
end_header
-2.63148307800292969 1.06282389163970947 -11.6178045272827148
10.5897808074951172 1.29661190509796143 -10.4034328460693359
11.2689285278320312 1.471061110496521 -7.1791071891784668
4.48186302185058594 1.25133752822875977 -13.8955240249633789
7.37188816070556641 1.42586755752563477 -13.7599811553955078
-5.20639419555664062 1.09810447692871094 -6.63768148422241211
-4.37410259246826172 1.09172892570495605 -8.95490646362304688
0.64612966775894165 1.24728786945343018 -13.0466861724853516
2.11992168426513672 -6.57307577133178711 -15.5017757415771484
0 0 0
1 0 0
2 0 0
3 0 0
4 0 0
5 0 0
6 0 0
7 0 0
0 1 0
1 1 0
2 1 0
3 1 0
4 1 0
5 1 0
6 1 0
7 1 0
0 2 0
1 2 0
2 2 0
3 2 0
4 2 0
5 2 0
6 2 0
7 2 0
0 3 0
1 3 0
2 3 0
3 3 0
4 3 0
5 3 0
6 3 0
7 3 0
0 4 0
1 4 0
2 4 0
3 4 0
4 4 0
5 4 0
6 4 0
7 4 0
0 5 0
1 5 0
2 5 0
3 5 0
4 5 0
5 5 0
6 5 0
7 5 0
0 6 0
1 6 0
2 6 0
3 6 0
4 6 0
5 6 0
6 6 0
7 6 0
0 7 0
1 7 0
2 7 0
3 7 0
4 7 0
5 7 0
6 7 0
7 7 0
